<?xml version="1.0" encoding="utf-8"?>
<!-- Generator: Adobe Illustrator 19.2.0, SVG Export Plug-In . SVG Version: 6.00 Build 0)  -->
<svg version="1.1" id="Layer_1" xmlns="http://www.w3.org/2000/svg" xmlns:xlink="http://www.w3.org/1999/xlink" x="0px" y="0px"
	 width="60px" height="19.557px" viewBox="0 0 60 19.557" style="enable-background:new 0 0 60 19.557;" xml:space="preserve">
<g>
	<path style="fill:#8E7E6F;" d="M3.571,16.697c0-0.345,0.144-0.518,0.433-0.518c0.145,0,0.334,0.049,0.569,0.146
		c0.235,0.098,0.439,0.146,0.611,0.146s0.359-0.11,0.56-0.33c0.201-0.219,0.357-0.492,0.471-0.818
		c0.232-0.664,0.348-1.265,0.348-1.801s-0.094-1.111-0.282-1.727c-0.188-0.614-0.417-1.191-0.687-1.73
		c-0.27-0.54-0.542-1.079-0.818-1.618C4.123,7.162,3.8,5.989,3.807,4.929C3.8,3.926,4.117,3.139,4.757,2.568
		c0.338-0.301,0.737-0.451,1.194-0.451c0.232,0,0.458,0.064,0.677,0.192c0.22,0.129,0.373,0.296,0.461,0.503L6.76,3.227
		c-0.32,0-0.571-0.062-0.752-0.188C5.77,3.063,5.563,3.176,5.387,3.377c-0.32,0.37-0.479,0.826-0.479,1.369s0.069,1.071,0.207,1.585
		c0.138,0.515,0.31,0.976,0.517,1.383C5.839,8.121,6.061,8.563,6.3,9.04c0.245,0.477,0.47,0.935,0.677,1.373
		c0.483,1.016,0.725,2.113,0.725,3.293c0.006,0.827-0.204,1.624-0.63,2.389c-0.201,0.364-0.477,0.663-0.828,0.898
		c-0.351,0.235-0.743,0.353-1.176,0.353c-0.464,0-0.829-0.068-1.096-0.206C3.705,17.001,3.571,16.854,3.571,16.697z"/>
	<path style="fill:#8E7E6F;" d="M14.042,11.109l-0.169,2.437v0.085c-0.082,0.357-0.123,0.743-0.123,1.156
		c0,0.414-0.072,0.814-0.216,1.2c-0.144,0.385-0.364,0.728-0.658,1.025c-0.295,0.297-0.605,0.446-0.932,0.446
		s-0.599-0.081-0.818-0.244c-0.219-0.163-0.433-0.408-0.64-0.734l-0.677,3.076L9.385,19.03l0.583-3.452
		c-0.333-0.866-0.56-1.882-0.682-3.048c-0.122-1.167-0.184-2.208-0.184-3.124L9.075,7.149c0-1.304,0.055-2.206,0.165-2.704
		c0.109-0.499,0.216-0.883,0.32-1.152s0.224-0.496,0.362-0.677c0.313-0.401,0.707-0.602,1.181-0.602s0.879,0.125,1.218,0.376
		L12.743,0h0.743l-0.602,2.991c0.777,1.135,1.167,3.478,1.167,7.027L14.042,11.109z M11.229,3.029
		c-0.307,0.006-0.549,0.26-0.724,0.762c-0.194,0.552-0.314,1.067-0.357,1.547c-0.044,0.479-0.079,0.867-0.104,1.162
		c-0.019,0.289-0.035,0.608-0.047,0.959C9.984,8.043,9.974,8.498,9.968,8.824v0.084c0,1.279,0.141,2.709,0.423,4.289l1.712-9.585
		C11.853,3.223,11.561,3.029,11.229,3.029z M12.565,4.703l-1.834,9.972c0.333,1.153,0.737,1.73,1.213,1.73
		c0.257,0,0.474-0.241,0.649-0.725c0.175-0.488,0.301-1.091,0.376-1.806c0.125-1.279,0.191-2.311,0.198-3.095
		C13.167,8.103,12.966,6.077,12.565,4.703z"/>
	<path style="fill:#8E7E6F;" d="M15.81,11.862l-0.131-7.826V3.922c0-0.689,0.106-1.128,0.32-1.317
		c0.106-0.094,0.241-0.141,0.404-0.141c0.916,0,1.63,0.295,2.145,0.884c0.514,0.59,0.771,1.349,0.771,2.276
		c0,0.583-0.154,1.188-0.461,1.816c-0.307,0.627-0.674,1.094-1.101,1.401c0.784,0.527,1.344,1.196,1.679,2.008
		c0.335,0.812,0.503,1.664,0.503,2.554c0,0.471-0.118,0.954-0.353,1.449c-0.235,0.495-0.47,0.891-0.706,1.186
		c-0.235,0.294-0.544,0.542-0.926,0.743c-0.383,0.2-0.803,0.301-1.261,0.301h-0.075c-0.602,0-0.903-0.16-0.903-0.48L15.81,11.862z
		 M16.995,3.556c-0.182,0-0.273,0.23-0.273,0.691s0.013,1.186,0.038,2.173c0.025,0.988,0.038,1.705,0.038,2.149
		c0.333-0.075,0.618-0.351,0.856-0.828c0.194-0.401,0.354-0.789,0.48-1.162s0.207-0.604,0.245-0.691V5.202
		c0-0.376-0.14-0.745-0.419-1.105C17.68,3.736,17.359,3.556,16.995,3.556z M18.397,15.192c0.364-0.489,0.546-1.054,0.546-1.693
		c0-0.641-0.054-1.203-0.16-1.689s-0.224-0.853-0.353-1.101c-0.129-0.248-0.278-0.459-0.447-0.635
		c-0.207-0.213-0.376-0.342-0.508-0.386h-0.687c0.062,1.775,0.094,3.904,0.094,6.387C17.528,15.976,18.033,15.681,18.397,15.192z"/>
	<path style="fill:#8E7E6F;" d="M25.875,11.109l-0.169,2.437v0.085c-0.082,0.357-0.123,0.743-0.123,1.156
		c0,0.414-0.072,0.814-0.216,1.2c-0.145,0.385-0.364,0.728-0.659,1.025c-0.294,0.297-0.618,0.446-0.969,0.446
		s-0.671-0.119-0.959-0.357s-0.527-0.544-0.715-0.917s-0.354-0.818-0.499-1.336c-0.145-0.518-0.256-1.022-0.334-1.515
		c-0.079-0.492-0.143-1.011-0.193-1.557c-0.075-0.834-0.111-1.481-0.108-1.942c0.003-0.461,0.001-0.856-0.004-1.186
		c-0.006-0.329-0.013-0.625-0.019-0.889c0-0.132,0-0.278,0-0.438c0-0.16,0-0.331,0-0.513c0.006-0.37,0.018-0.702,0.033-0.997
		s0.043-0.613,0.084-0.955s0.092-0.643,0.155-0.903c0.062-0.26,0.147-0.516,0.254-0.767c0.113-0.257,0.238-0.467,0.376-0.63
		c0.313-0.364,0.674-0.545,1.082-0.545s0.756,0.074,1.044,0.221c0.288,0.147,0.531,0.384,0.729,0.71
		c0.197,0.326,0.37,0.643,0.517,0.95s0.264,0.735,0.348,1.284c0.085,0.549,0.152,0.993,0.202,1.331
		c0.05,0.345,0.085,0.837,0.104,1.477c0.025,0.859,0.038,1.53,0.038,2.013V11.109z M24.168,4.059
		c-0.129-0.33-0.289-0.583-0.48-0.762s-0.381-0.268-0.569-0.268c-0.188,0-0.344,0.066-0.466,0.198s-0.226,0.318-0.311,0.56
		c-0.084,0.242-0.16,0.5-0.226,0.776c-0.066,0.276-0.116,0.594-0.15,0.955c-0.035,0.361-0.064,0.688-0.089,0.983
		c-0.019,0.289-0.035,0.608-0.047,0.959c-0.013,0.583-0.022,1.038-0.028,1.364v0.084c0,0.859,0.065,1.786,0.197,2.78
		c0.132,0.995,0.268,1.808,0.409,2.441c0.141,0.634,0.331,1.171,0.569,1.613c0.238,0.442,0.504,0.663,0.799,0.663
		c0.257,0,0.474-0.241,0.649-0.725c0.175-0.488,0.301-1.091,0.376-1.806c0.125-1.279,0.189-2.178,0.193-2.695
		c0.003-0.518,0.003-0.896,0-1.134c-0.003-0.238-0.013-0.584-0.028-1.04c-0.016-0.455-0.042-0.881-0.08-1.279
		c-0.038-0.398-0.086-0.838-0.146-1.322c-0.06-0.482-0.138-0.912-0.235-1.289C24.409,4.741,24.297,4.388,24.168,4.059z"/>
	<path style="fill:#8E7E6F;" d="M31.453,13.433l-0.752,0.075c-0.439,0-0.659-0.182-0.659-0.545c0-0.313,0.414-0.518,1.242-0.612
		c0.163-0.018,0.342-0.027,0.537-0.027c0.194,0,0.36,0.1,0.499,0.301c0.138,0.201,0.207,0.469,0.207,0.804
		c0,0.336,0.064,0.883,0.193,1.642c0.129,0.759,0.193,1.271,0.193,1.533c0,0.471-0.158,0.706-0.475,0.706
		c-0.316,0-0.528-0.135-0.635-0.404v-0.02c-0.075,0.032-0.216,0.104-0.423,0.217c-0.389,0.213-0.774,0.32-1.157,0.32
		c-0.276,0-0.552-0.057-0.828-0.17c-0.589-0.232-1.041-0.624-1.354-1.176c-0.339-0.583-0.562-1.142-0.668-1.675
		c-0.106-0.532-0.179-0.953-0.216-1.26c-0.044-0.314-0.079-0.672-0.104-1.073c-0.031-0.508-0.047-1.119-0.047-1.834l-0.009-1.42
		c0-1.242,0.041-2.132,0.122-2.671c0.082-0.539,0.165-0.981,0.25-1.326c0.084-0.345,0.183-0.651,0.296-0.917
		c0.113-0.266,0.251-0.525,0.414-0.776c0.163-0.257,0.351-0.467,0.564-0.63c0.458-0.364,0.981-0.544,1.571-0.541
		c0.589,0.003,0.884,0.187,0.884,0.55c0,0.138-0.05,0.248-0.15,0.33c-0.101,0.082-0.22,0.122-0.357,0.122l-0.555-0.094
		c-0.483,0.006-0.862,0.298-1.138,0.875C28.6,4.368,28.412,4.97,28.33,5.541s-0.141,1.032-0.179,1.383
		c-0.05,0.345-0.082,0.737-0.094,1.176c-0.025,0.608-0.035,1.217-0.028,1.825l-0.01,1.194c0,1.23,0.055,2.104,0.165,2.625
		c0.109,0.521,0.224,0.935,0.343,1.242c0.113,0.313,0.25,0.57,0.414,0.771c0.533,0.407,1,0.636,1.402,0.687
		c0.571,0,1.044-0.27,1.42-0.81C31.745,14.493,31.642,13.759,31.453,13.433z"/>
	<path style="fill:#8E7E6F;" d="M38.311,16.913c-0.395,0-0.593-0.166-0.593-0.498v-2.512c-0.182-0.125-0.51-0.232-0.983-0.32
		c-0.474-0.087-0.896-0.144-1.265-0.169c-0.132,0.226-0.24,0.552-0.325,0.979s-0.172,0.855-0.263,1.288
		c-0.091,0.434-0.212,0.775-0.362,1.025c-0.502,0-0.784-0.128-0.847-0.385c0.175-0.251,0.461-1.534,0.856-3.848
		c0.395-2.314,0.72-4.125,0.974-5.433s0.528-2.407,0.823-3.297c0.294-0.89,0.577-1.335,0.847-1.335c0.27,0,0.477,0.056,0.621,0.169
		c0,0.458,0.125,1.697,0.376,3.716c0.25,2.02,0.376,3.326,0.376,3.918c0,0.593,0.067,1.577,0.203,2.954
		c0.135,1.376,0.202,2.409,0.202,3.1C38.951,16.697,38.737,16.913,38.311,16.913z M37.502,10.625
		c-0.113-1.138-0.215-2.223-0.306-3.255c-0.091-1.031-0.136-1.656-0.136-1.872s0.003-0.34,0.009-0.372
		c-0.201,0.207-0.491,1.358-0.87,3.453S35.617,12,35.592,12.558c0.533,0.145,0.98,0.217,1.34,0.217c0.361,0,0.616-0.02,0.767-0.057
		C37.681,12.461,37.615,11.763,37.502,10.625z"/>
	<path style="fill:#8E7E6F;" d="M44.482,16.913c-0.395,0-0.593-0.166-0.593-0.498v-2.512c-0.182-0.125-0.51-0.232-0.983-0.32
		c-0.474-0.087-0.896-0.144-1.265-0.169c-0.132,0.226-0.24,0.552-0.325,0.979s-0.172,0.855-0.263,1.288
		c-0.091,0.434-0.212,0.775-0.362,1.025c-0.502,0-0.784-0.128-0.847-0.385c0.175-0.251,0.461-1.534,0.856-3.848
		c0.395-2.314,0.72-4.125,0.974-5.433s0.528-2.407,0.823-3.297c0.294-0.89,0.577-1.335,0.847-1.335c0.27,0,0.477,0.056,0.621,0.169
		c0,0.458,0.125,1.697,0.376,3.716c0.25,2.02,0.376,3.326,0.376,3.918c0,0.593,0.067,1.577,0.203,2.954
		c0.135,1.376,0.202,2.409,0.202,3.1C45.122,16.697,44.908,16.913,44.482,16.913z M43.673,10.625
		c-0.113-1.138-0.215-2.223-0.306-3.255c-0.091-1.031-0.136-1.656-0.136-1.872s0.003-0.34,0.009-0.372
		c-0.201,0.207-0.491,1.358-0.87,3.453S41.788,12,41.763,12.558c0.533,0.145,0.98,0.217,1.34,0.217c0.361,0,0.616-0.02,0.767-0.057
		C43.852,12.461,43.786,11.763,43.673,10.625z"/>
	<path style="fill:#8E7E6F;" d="M46.429,16.358l0.075-11.297V2.69c0-0.151,0.031-0.257,0.094-0.32
		c0.063-0.063,0.228-0.094,0.494-0.094s0.536,0.064,0.809,0.193c0.272,0.128,0.503,0.299,0.691,0.513
		c0.182,0.226,0.338,0.477,0.47,0.752c0.25,0.533,0.376,1.113,0.376,1.74c0,0.627-0.157,1.345-0.471,2.154
		c-0.038,0.088-0.113,0.273-0.226,0.555s-0.179,0.448-0.198,0.499c0.006,0.953,0.248,2.191,0.725,3.715
		c0.163,0.516,0.395,1.219,0.696,2.112c0.301,0.894,0.489,1.46,0.564,1.698v0.047c0,0.433-0.05,0.686-0.15,0.758
		c-0.101,0.071-0.207,0.107-0.32,0.107c-0.238,0-0.47-0.172-0.696-0.518v-0.065c-0.062-1.166-0.464-2.932-1.204-5.296
		c-0.338-1.079-0.574-1.878-0.705-2.399v7.591c0,0.194-0.035,0.345-0.104,0.451c-0.069,0.107-0.195,0.16-0.376,0.16
		c-0.182,0-0.318-0.052-0.409-0.155s-0.136-0.23-0.136-0.381V16.358z M47.492,3.161l-0.104,3.932c0,0.395,0.006,0.69,0.019,0.884
		c0.22-0.207,0.436-0.455,0.649-0.743l0.301-1.665c0.019-0.088,0.028-0.188,0.028-0.301c0-0.307-0.063-0.68-0.188-1.119
		C48.022,3.546,47.787,3.217,47.492,3.161z"/>
	<path style="fill:#8E7E6F;" d="M56.382,9.83l0.047,0.404c0.006,0.91-0.235,1.981-0.724,3.218c-0.552,1.41-1.204,2.411-1.957,3
		c-0.427,0.339-0.866,0.512-1.317,0.518c-0.239,0-0.455-0.055-0.649-0.164c-0.194-0.11-0.292-0.274-0.292-0.494
		c0.282-0.295,0.423-1.051,0.423-2.268c0-0.715-0.06-1.777-0.179-3.188s-0.179-2.468-0.179-3.17l0.056-2.107
		c0-0.338-0.07-0.795-0.211-1.369s-0.211-0.98-0.211-1.218c0-0.445,0.492-0.668,1.477-0.668h0.292c1.311,0,2.261,0.734,2.851,2.201
		c0.414,1.022,0.621,2.434,0.621,4.233v0.894C56.397,9.708,56.382,9.768,56.382,9.83z M52.835,14.007v1.844
		c0.483-0.313,0.903-0.751,1.261-1.312c0.357-0.562,0.63-1.174,0.818-1.839c0.351-1.273,0.526-2.543,0.526-3.81
		c0-1.455-0.182-2.602-0.545-3.443c-0.37-0.865-0.828-1.436-1.374-1.712c-0.338-0.175-0.721-0.26-1.147-0.254v0.019
		c0,1.161,0.077,2.907,0.23,5.24S52.835,12.827,52.835,14.007z"/>
</g>
</svg>
