<?xml version="1.0" encoding="utf-8"?>
<!-- Generator: Adobe Illustrator 19.2.0, SVG Export Plug-In . SVG Version: 6.00 Build 0)  -->
<svg version="1.1" id="Layer_1" xmlns="http://www.w3.org/2000/svg" xmlns:xlink="http://www.w3.org/1999/xlink" x="0px" y="0px"
	 width="72px" height="72px" viewBox="0 0 72 72" style="enable-background:new 0 0 72 72;" xml:space="preserve">
<g>
	<path style="fill-rule:evenodd;clip-rule:evenodd;fill:#008061;" d="M45.765,22.747c1.744,0,3.017,0.721,3.84,2.197
		c0.385,0.688,0.587,1.442,0.587,2.263c0,0.754-0.185,1.459-0.537,2.112c-0.855,1.542-2.145,2.313-3.889,2.313
		c-1.693,0-2.984-0.703-3.822-2.112c-0.436-0.72-0.637-1.492-0.637-2.313c0-0.821,0.184-1.575,0.586-2.263
		C42.731,23.469,44.038,22.747,45.765,22.747L45.765,22.747z M26.219,22.747c1.776,0,3.067,0.721,3.888,2.197
		c0.386,0.688,0.587,1.442,0.587,2.263c0,0.787-0.201,1.525-0.587,2.213c-0.821,1.474-2.112,2.212-3.888,2.212
		c-1.727,0-3.017-0.738-3.823-2.212c-0.401-0.688-0.604-1.426-0.604-2.213c0-0.856,0.202-1.627,0.604-2.313
		C23.268,23.452,24.541,22.747,26.219,22.747L26.219,22.747z M35.991,4.526c-8.666,0-16.092,3.084-22.245,9.253
		C7.593,19.949,4.51,27.358,4.51,36.008c0,8.667,3.084,16.077,9.236,22.213c6.153,6.135,13.579,9.22,22.245,9.22
		c8.651,0,16.061-3.085,22.23-9.22c6.169-6.136,9.253-13.545,9.253-22.213c0-8.65-3.084-16.059-9.253-22.228
		C52.051,7.61,44.642,4.526,35.991,4.526L35.991,4.526z M35.991,0c9.925,0,18.407,3.52,25.448,10.561
		C68.48,17.601,72,26.084,72,36.008c0,9.908-3.52,18.39-10.561,25.431C54.398,68.48,45.916,72,35.991,72
		c-9.923,0-18.406-3.52-25.43-10.561C3.52,54.398,0,45.916,0,36.008c0-9.923,3.52-18.407,10.561-25.447
		C17.584,3.52,26.068,0,35.991,0L35.991,0z M56.326,33.108h5.012c0,7.074-2.497,13.093-7.493,18.088
		C48.85,56.191,42.832,58.69,35.79,58.69c-7.041,0-13.042-2.498-18.038-7.494c-4.995-4.995-7.493-11.014-7.493-18.088h5.012
		c0,5.7,1.995,10.528,6.019,14.501c4.006,3.99,8.834,5.968,14.5,5.968s10.511-1.978,14.517-5.968
		C54.314,43.636,56.326,38.808,56.326,33.108L56.326,33.108z"/>
</g>
</svg>
