<?xml version="1.0" encoding="utf-8"?>
<!-- Generator: Adobe Illustrator 19.2.0, SVG Export Plug-In . SVG Version: 6.00 Build 0)  -->
<svg version="1.1" id="Layer_1" xmlns="http://www.w3.org/2000/svg" xmlns:xlink="http://www.w3.org/1999/xlink" x="0px" y="0px"
	 width="203.733px" height="65px" viewBox="0 0 203.733 65" style="enable-background:new 0 0 203.733 65;" xml:space="preserve">
<g>
	<path style="fill:#8E7E6F;" d="M149.909,44.113c4.504-3.946,9.613-9.611,12.277-14.044c4.171-6.886-1.685-7.698-7.717-0.749
		c-3.512,4.046-5.893,7.93-7.415,13.589l-0.354,1.316c-1.267,1.642-2.415,3.205-3.29,4.045c-1.027,0.986-2.335,1.813-3.351,1.771
		c-1.015-0.043-0.88-1.776-0.078-3.335c0.878-1.707,4.086-6.853,4.086-6.853c0.491-0.928,0.04-1.178-0.293-1.114
		s-1.573,1.243-2.537,2.336c-0.23,0.26-0.547,0.696-0.896,1.208c-1.81,2.055-3.818,5.445-6.469,7.353
		c-0.785,0.565-2.38,0.998-1.287-1.652c0.935-2.266,4.745-6.504,2.494-8.981c-2.098-2.307-6.209,1.882-6.499,1.753
		c-0.25-0.111,0.008-3.523-2.968-3.523c-1.496,0-2.799,0.917-4.255,2.297c-0.412,0.391-0.558,0.082-0.778-0.051
		c-0.027-0.041-0.053-0.083-0.083-0.122c-2.051-2.654-4.295-1.786-8.059,3.354c-2.852,3.895-9.965,11.075-17.926,11.107
		c-11.835,0.048-9.049-10.239-4.682-13.086c1.907-1.243,6.097-2.526,6.466-2.123c2.493,2.719,6.853,4.174,7.794,2.268
		c0.903-1.828-0.943-3.496-6.153-3.667c-0.535-0.017-0.916-1.873-0.458-3.329c1.232-3.929,7.48-7.336,11.244-7.336
		c8.638,0,4.15,7.939-5.091,7.504c-0.389-0.018-0.604,0.921-0.256,0.997c8.783,1.939,17.212-8.767,5.611-10.193
		c-6.778-0.833-13.787,4.775-14.065,8.508c-0.085,1.134-0.06,2.329,0.709,3.682c-1.101,0.035-4.341,1.042-5.51,1.396
		c-9.7,3.257-10.126,16.66,3.74,16.66c8.735,0,15.114-6.588,17.518-9.494c4.274-5.165,7.746-8.849,7.663-4.45
		c-1.648,4.223-6.523,9.084-6.367,9.895c0.09,0.469,1.003,1.216,1.48,0.82c2.992-2.477,3.491-3.546,7.142-8.976
		c5.083-7.561,6.74-3.715,4.297,0.124c-2.23,3.506-4.37,6.448-4.185,7.243c0.127,0.55,1.093,0.772,1.657,0.644
		c0.91-0.208,4.711-7.51,6.611-9.056c4.777-4.672,5.758-1.207,2.944,1.834c-1.709,1.846-4.235,5.866-2.075,7.393
		c1.866,1.319,4.575-0.675,6.727-2.987c-0.196,1.658,0.454,3.28,2.909,3.28c2.106,0,4.531-2.627,6.313-5.091
		c0.083,2.272,1.054,5.12,3.66,5.215c4.802,0.174,8.656-6.043,8.731-6.523c0.046-0.297-0.078-0.714-0.551-0.534
		c-0.473,0.18-1.208,1.891-3.594,3.982c-4.211,3.691-6.094,1.229-5.881-1.051C149.042,45.345,149.209,44.726,149.909,44.113z
		 M158.595,27.775c4.126-3.839,4.535-1.497,2.001,2.509s-10.398,12.427-10.856,12.162C149.281,42.18,152.683,33.277,158.595,27.775z
		"/>
	<path style="fill:#8E7E6F;" d="M146.084,37.234c0.82,0,1.457-0.479,1.843-1.311c0.386-0.833,0.521-1.954-0.673-1.954
		c-1.195,0-1.93,1.142-2.087,1.733C145.01,36.293,145.264,37.234,146.084,37.234z"/>
	<path style="fill:#8E7E6F;" d="M65.281,35.823c0.867-0.072,4.006-2.671,4.633-3.062c0.627-0.391,0.618-0.985-0.181-0.981
		c-0.8,0.005-1.537-0.037-2.244,0.427c-0.707,0.502-3.034,2.598-3.234,3.079C64.055,35.769,64.414,35.895,65.281,35.823z"/>
	<path style="fill:#8E7E6F;" d="M70.548,44.763c-1.354,1.816-5.305,6.322-9.193,6.322c-2.916,0-3.764-0.917-3.648-3.856
		c3.117-0.101,4.562-0.4,7.605-2.186c2.863-1.679,4.183-5.089,2.188-6.698c-2.222-1.792-6.265,0.121-8.678,2.341
		c-0.868,0.798-1.656,1.816-2.28,2.899c-3.312,3.892-7.054,8.029-11.326,6.391c0.614-1.461,1.645-3.589,2.579-5.853
		c10.351-6.732,13.94-15.547,14.729-17.227c1.437-3.061-2.263-5.055-5.287-2.257c-4.024,3.724-5.624,7.054-7.142,9.652
		c-1.518,2.598-3.395,6.364-4.388,8.338l0,0c-0.034,0.017-0.069,0.047-0.108,0.108c-2.92,4.512-5.332,6.647-6.829,7.094
		c-1.201,0.359-1.583-0.495-0.739-2.75c0.845-2.256,4.183-7.171,4.334-7.689c0.151-0.518-0.451-1.006-0.869-0.612
		c-0.346,0.326-0.789,1.072-1.086,1.496c-3.426-4.295-9.268-1.43-12.282,1.52c-0.047,0.049-0.092,0.097-0.138,0.147
		c-2.248,2.26-3.506,5.059-8.283,8.636c-3.377,2.529-8.436,3.937-12.306,2.726c-9.403-3.026-4.033-15.199,0.724-20.051
		c4.85-4.946,8.179-7.866,14.116-8.324c10.307-0.796,2.823,15.949-6.49,14.936c-2.176-0.237-3.161-1.182-3.547-1.279
		c-0.386-0.097-0.981,0.497-0.531,0.892c0.451,0.395,1.498,1.399,3.378,1.641c13.488,1.737,19.64-18.205,6.634-17.553
		c-5.746,0.286-10.953,2.953-16.797,9.907C-0.41,39.78-3.147,50.379,5.931,54.39c5.244,2.346,11.102-0.585,14.791-3.233
		c1.701-1.256,2.832-2.188,3.844-3.324c-0.573,4.296,4.858,5.541,8.776,2.353c0.922-0.75,1.17-1.014,1.899-1.935
		c-0.306,3.099,2.299,3.63,3.915,2.905c1.271-0.569,2.639-1.577,3.847-2.745c-1.129,2.47-2.366,5.207-3.316,7.306
		c-0.826,1.739-2.711,5.389-2.639,5.826c0.073,0.436,1.653,1.174,2.241,0.896c0.587-0.278,2.607-5.981,5.382-11.314
		c3.514,1.315,7.529-0.666,10.57-4.153c-0.064,0.361-0.101,0.714-0.101,1.049c-0.001,2.87,2.74,4.414,5.733,4.414
		c4.946,0,8.95-4.081,10.584-7.174C71.898,44.449,70.902,44.067,70.548,44.763z M56.458,27.838c3.505-4.634,5.881-3.531,4.024,0.338
		c-3.088,6.434-10.851,13.854-11.362,13.532C48.75,41.473,53.087,32.295,56.458,27.838z M33.196,48.864
		c-2.076,2.164-6.877,3.196-6.032-0.714c0.844-3.91,2.925-5.205,4.705-6.718c2.147-1.825,7.142-2.654,7.27-0.385
		c0.048,0.849-0.707,1.483-1.723,2.869C36.107,45.702,34.743,47.241,33.196,48.864z M61.131,41.625
		c6.714-6.08,7.243-0.519,2.362,2.423c-1.591,1.159-3.879,1.951-5.469,1.878C58.311,45.037,59.262,43.318,61.131,41.625z"/>
</g>
<g>
	<path style="fill:#8E7E6F;" d="M103.794,55.838v0.506h-0.517v-0.506H103.794z"/>
	<path style="fill:#8E7E6F;" d="M145.646,55.838v0.506h-0.517v-0.506H145.646z"/>
	<path style="fill:#8E7E6F;" d="M48.184,56.297h-1.388v3.425h-0.517v-3.425h-1.388v-0.459h3.292L48.184,56.297L48.184,56.297z"/>
	<path style="fill:#8E7E6F;" d="M103.794,56.828v2.895h-0.517v-2.895H103.794z"/>
	<path style="fill:#8E7E6F;" d="M145.646,56.828v2.895h-0.517v-2.895H145.646z"/>
	<polygon style="fill:#8E7E6F;" points="79.766,59.722 79.15,55.838 78.489,55.838 75.067,58.994 71.581,55.838 70.984,55.838 
		70.368,59.722 70.885,59.722 71.382,56.586 75.067,59.722 78.753,56.586 79.249,59.722 	"/>
	<path style="fill:#8E7E6F;" d="M55.122,56.893c-0.327-0.195-0.569-0.248-1.483-0.248c-0.5,0-1.129,0.049-1.606,0.116
		c-0.493,0.069-1.433,0.251-1.895,0.36v-1.284h-0.517v3.885h0.517v-2.043c0.389-0.105,1.456-0.384,1.879-0.451
		c0.424-0.067,0.831-0.102,1.219-0.102c0.379,0,0.688,0.019,0.925,0.055c0.237,0.037,0.418,0.092,0.545,0.167
		c0.12,0.068,0.204,0.162,0.249,0.283c0.046,0.121,0.069,0.25,0.069,0.387v1.705h0.517V57.78
		C55.542,57.413,55.449,57.089,55.122,56.893z"/>
	<path style="fill:#8E7E6F;" d="M112.102,56.893c-0.327-0.195-0.569-0.248-1.483-0.248c-0.5,0-1.13,0.049-1.606,0.116
		c-0.493,0.069-1.433,0.251-1.895,0.36v-0.476h-0.517v3.076h0.517v-2.043c0.389-0.105,1.456-0.384,1.879-0.451
		c0.424-0.067,0.831-0.102,1.219-0.102c0.38,0,0.688,0.019,0.925,0.055c0.237,0.037,0.419,0.092,0.545,0.167
		c0.12,0.068,0.204,0.162,0.249,0.283c0.046,0.121,0.069,0.25,0.069,0.387v1.705h0.517v-1.942
		C112.522,57.413,112.429,57.089,112.102,56.893z"/>
	<path style="fill:#8E7E6F;" d="M153.928,56.893c-0.327-0.195-0.569-0.248-1.483-0.248c-0.5,0-1.13,0.049-1.606,0.116
		c-0.493,0.069-1.433,0.251-1.895,0.36v-0.476h-0.517v3.076h0.517v-2.043c0.389-0.105,1.456-0.384,1.879-0.451
		s0.831-0.102,1.219-0.102c0.38,0,0.688,0.019,0.925,0.055c0.237,0.037,0.418,0.092,0.545,0.167c0.12,0.068,0.204,0.162,0.249,0.283
		c0.046,0.121,0.069,0.25,0.069,0.387v1.705h0.517v-1.942C154.348,57.413,154.255,57.089,153.928,56.893z"/>
	<path style="fill:#8E7E6F;" d="M63.846,58.242h-5.081c0,0.18,0.018,0.388,0.175,0.527c0.137,0.122,0.382,0.248,0.605,0.315
		c0.362,0.109,0.705,0.157,0.932,0.181c0.409,0.045,0.657,0.029,0.946,0.027c0.459-0.003,0.919-0.046,1.385-0.119
		c0.146-0.022,0.327-0.043,0.327-0.043l0.02,0.463c-0.243,0.031-0.066,0.011-0.464,0.059c-0.399,0.047-0.817,0.071-1.256,0.071
		c-1.118,0-1.996-0.072-2.624-0.335c-0.627-0.263-0.884-0.718-0.884-1.203c0-0.577,0.43-0.925,1.036-1.231
		c0.605-0.307,1.121-0.307,1.859-0.307c0.909,0,1.663,0.113,2.155,0.343c0.493,0.231,0.866,0.561,0.866,0.986v0.267H63.846z
		 M62.892,57.864c-0.004-0.259-0.154-0.459-0.449-0.6c-0.296-0.142-0.745-0.212-1.348-0.212c-0.607,0-1.089,0.083-1.45,0.233
		c-0.393,0.164-0.844,0.353-0.877,0.58L62.892,57.864L62.892,57.864z"/>
	<path style="fill:#8E7E6F;" d="M88.329,58.242h-5.081c0,0.18,0.018,0.388,0.175,0.527c0.137,0.122,0.382,0.248,0.605,0.315
		c0.362,0.109,0.705,0.157,0.932,0.181c0.41,0.045,0.657,0.029,0.947,0.027c0.459-0.003,0.919-0.046,1.385-0.119
		c0.146-0.022,0.327-0.043,0.327-0.043l0.02,0.463c-0.243,0.031-0.066,0.011-0.464,0.059c-0.399,0.047-0.817,0.071-1.256,0.071
		c-1.118,0-1.996-0.072-2.624-0.335c-0.627-0.263-0.884-0.718-0.884-1.203c0-0.577,0.43-0.925,1.036-1.231
		c0.605-0.307,1.12-0.307,1.859-0.307c0.909,0,1.663,0.113,2.156,0.343c0.493,0.231,0.866,0.561,0.866,0.986v0.267H88.329z
		 M87.375,57.864c-0.004-0.259-0.155-0.459-0.449-0.6c-0.296-0.142-0.746-0.212-1.348-0.212c-0.607,0-1.089,0.083-1.451,0.233
		c-0.393,0.164-0.844,0.353-0.877,0.58L87.375,57.864L87.375,57.864z"/>
	<path style="fill:#8E7E6F;" d="M96.115,58.242h-5.081c0,0.18,0.018,0.388,0.175,0.527c0.137,0.122,0.382,0.248,0.605,0.315
		c0.362,0.109,0.705,0.157,0.932,0.181c0.41,0.045,0.657,0.029,0.947,0.027c0.459-0.003,0.919-0.046,1.385-0.119
		c0.146-0.022,0.327-0.043,0.327-0.043l0.02,0.463c-0.243,0.031-0.066,0.011-0.464,0.059c-0.399,0.047-0.817,0.071-1.256,0.071
		c-1.118,0-1.996-0.072-2.624-0.335c-0.627-0.263-0.884-0.718-0.884-1.203c0-0.577,0.43-0.925,1.036-1.231
		c0.605-0.307,1.12-0.307,1.859-0.307c0.909,0,1.663,0.113,2.156,0.343c0.493,0.231,0.866,0.561,0.866,0.986v0.267H96.115z
		 M95.16,57.864c-0.004-0.259-0.155-0.459-0.449-0.6c-0.296-0.142-0.745-0.212-1.348-0.212c-0.607,0-1.089,0.083-1.451,0.233
		c-0.393,0.164-0.844,0.353-0.877,0.58L95.16,57.864L95.16,57.864z"/>
	<path style="fill:#8E7E6F;" d="M101.262,57.162v-0.517h-2.181v-0.632h-0.517v0.632h-0.728v0.517h0.728v1.53
		c0,0.36,0.137,0.622,0.413,0.785c0.275,0.164,0.678,0.244,1.207,0.244c0.151,0,0.324-0.007,0.518-0.024
		c0.193-0.016,0.373-0.037,0.536-0.061v-0.45h-0.046c-0.068,0.016-0.18,0.036-0.335,0.06c-0.154,0.024-0.303,0.036-0.445,0.036
		c-0.244,0-0.463,0.003-0.636-0.024c-0.172-0.027-0.455-0.103-0.547-0.181c-0.092-0.078-0.118-0.159-0.13-0.246
		c-0.013-0.088-0.019-0.21-0.019-0.366v-1.304H101.262z"/>
	<path style="fill:#8E7E6F;" d="M159.927,57.162v-0.517h-2.181v-0.632h-0.517v0.632h-0.727v0.517h0.727v1.53
		c0,0.36,0.137,0.622,0.413,0.785c0.275,0.164,0.678,0.244,1.207,0.244c0.152,0,0.324-0.007,0.518-0.024
		c0.193-0.016,0.373-0.037,0.536-0.061v-0.45h-0.046c-0.068,0.016-0.179,0.036-0.335,0.06c-0.154,0.024-0.303,0.036-0.445,0.036
		c-0.245,0-0.464,0.003-0.636-0.024c-0.172-0.027-0.455-0.103-0.547-0.181c-0.092-0.078-0.118-0.159-0.13-0.246
		c-0.013-0.088-0.019-0.21-0.019-0.366v-1.304H159.927z"/>
	<path style="fill:#8E7E6F;" d="M120.936,59.766c-0.027,0.206-0.082,0.281-0.161,0.363c-0.091,0.095-0.265,0.193-0.583,0.282
		c-0.233,0.065-0.626,0.11-0.905,0.154c-0.28,0.043-0.634,0.065-1.061,0.065c-0.445,0-0.89-0.025-1.335-0.076
		c-0.445-0.05-0.77-0.092-0.974-0.126h-0.067v0.545c0.365,0.043,0.735,0.077,1.111,0.101c0.376,0.024,0.762,0.036,1.157,0.036
		c1.192,0,2.075-0.126,2.648-0.378c0.574-0.252,0.684-0.646,0.684-1.185v-2.901h-0.517L120.936,59.766L120.936,59.766z"/>
	<path style="fill:#8E7E6F;" d="M116.472,57.426c0.413-0.188,1.295-0.321,2.015-0.321c0.296,0,0.595,0.013,0.894,0.039
		c0.299,0.026,1.207,0.07,1.556,0.132V56.86c-0.34-0.072-1.245-0.127-1.549-0.162c-0.305-0.035-0.681-0.053-1.131-0.053
		c-0.427,0-0.856,0.036-1.288,0.107c-0.431,0.071-0.704,0.179-1.006,0.308c-0.326,0.138-0.541,0.294-0.729,0.484
		c-0.188,0.19-0.343,0.473-0.343,0.83c0,0.363,0.193,0.721,0.703,0.987c0.536,0.281,1.324,0.36,2.252,0.36
		c0.557,0,1.016-0.03,1.375-0.091c0.359-0.061,1.321-0.153,1.715-0.276v-0.421c-0.32,0.096-1.256,0.173-1.639,0.229
		c-0.382,0.057-0.764,0.086-1.145,0.086c-0.71,0-1.534-0.049-1.84-0.226c-0.306-0.176-0.46-0.416-0.46-0.775
		C115.853,57.889,116.06,57.615,116.472,57.426z"/>
	<path style="fill:#8E7E6F;" d="M134.4,57.012c0,0.172-0.076,0.332-0.229,0.479c-0.153,0.147-0.367,0.274-0.642,0.383
		c-0.342,0.133-0.745,0.234-1.211,0.301c-0.466,0.067-1.055,0.101-1.765,0.101h-1.317v1.447h-0.517v-3.885h1.887
		c0.595,0,1.098,0.02,1.51,0.059c0.412,0.039,0.778,0.101,1.098,0.185c0.377,0.099,0.668,0.223,0.875,0.371
		C134.297,56.598,134.4,56.786,134.4,57.012z M133.403,57.025c0-0.134-0.059-0.25-0.179-0.35c-0.12-0.099-0.525-0.208-0.847-0.263
		c-0.322-0.056-0.528-0.072-0.801-0.095c-0.273-0.024-0.617-0.035-1.034-0.035h-1.304v1.552h1.111c0.532,0,0.964-0.019,1.297-0.056
		c0.332-0.038,0.697-0.086,1.026-0.167c0.316-0.077,0.515-0.184,0.602-0.276C133.36,57.243,133.403,57.14,133.403,57.025z"/>
	<path style="fill:#8E7E6F;" d="M142.667,58.185c0,0.475-0.301,0.85-0.904,1.124c-0.603,0.275-1.41,0.413-2.422,0.413
		c-1.021,0-1.831-0.137-2.432-0.413c-0.6-0.275-0.901-0.649-0.901-1.124c0-0.475,0.301-0.851,0.901-1.126
		c0.6-0.276,1.411-0.413,2.432-0.413c1.011,0,1.819,0.138,2.422,0.413C142.366,57.335,142.667,57.711,142.667,58.185z
		 M141.749,58.185c0-0.377-0.355-0.656-0.843-0.826c-0.487-0.172-0.916-0.29-1.565-0.29c-0.659,0-1.117,0.071-1.607,0.265
		c-0.457,0.181-0.739,0.474-0.739,0.851c0,0.365,0.313,0.649,0.775,0.844c0.462,0.194,0.916,0.27,1.57,0.27
		c0.645,0,1.09-0.098,1.56-0.258C141.371,58.882,141.749,58.554,141.749,58.185z"/>
</g>
<g>
	<path style="fill:#8E7E6F;" d="M193.775,10.548c-7.136-5.992-14.865-8.653-24.201-7.932c-12.222,0.944-24.728,9.06-28.183,21.874
		c-0.986,3.656-1.563,6.983-1.013,10.693c0.098,0.663,0.266,2.581,1.11,1.351c2.003-2.92,4.066-5.537,4.657-8.469
		c0.512-2.845,0.837-5.734,1.624-8.509c1.589-5.6,4.439-9.978,10.66-11.102c3.632-0.656,7.457,0.215,10.637,1.933
		c5.015,2.71,7.202,7.491,5.723,12.994c-0.544,2.023-1.255,3.895-0.302,6.112c0.363,0.745,0.183,1.123-0.327,1.326
		c-0.395,0.157-1.178,0.14-1.426,0.572c-0.177,0.31,0.226,1.144-0.07,1.399c-0.261,0.226-0.353,0.056-0.682,0.291
		c-0.245,0.175,0.151,0.953-0.62,1.078c-0.499,0.08-0.533,0.756-0.475,0.929c0.485,1.465-0.71,2.122-2.014,2.219
		c-0.97,0.072-1.665,0.073-3.547-0.458c-1.372-0.387-2.376,0.028-3.33,1.146c-2.326,2.727-2.603,6.463-0.519,9.41
		c1.993,2.818,4.532,5.191,6.205,8.554c0.516,1.036,0.81,0.843,1.263-0.023c0.736-1.408,1.891-3.984,2.344-5.087
		c1.75-3.833,4.125-6.251,9.169-6.687c0.895-0.077-0.01-0.54-0.148-0.606c-0.116-0.055-2.691-0.47-2.546-0.808
		c0.145-0.337,2.941-0.391,3.439-0.337c2.434,0.263,1.525-0.573,1.261-2.926c-0.028-0.253-1.028-0.054-1.128-0.299
		c-0.1-0.245-0.214-1.076-0.137-1.199c0.128-0.2,0.772,0.091,0.719-0.285c-0.239-1.689-0.715-1.721,2.252-1.801
		c2.82-0.178,6.068-0.297,8.891-0.136c2.123,0.121,1.961,0.91,1.58,2.618c-0.242,1.088-1.657,2.536-1.086,3.571
		c0.254,0.458,2.702,0.041,3.824,0.278c0.853,0.179,1.846,1.062,0.932,1.663c-2.566,1.69-3.831,4.232-7.21,4.057
		c-3.235-0.01-5.53,0.574-8.713,0.883c-3.735,0.362-5.649,1.437-6.697,5.05c-0.35,1.206-0.863,2.792-1.255,3.985
		c-0.662,2.013-1.276,2.551,0.773,2.257c11.196-1.512,20.269-7.174,24.547-15.515C206.912,33,204.107,19.224,193.775,10.548z
		 M189.422,33.189c-0.111,0.096-0.281,0.1-0.445-0.127s0.059-1.417-0.043-1.871s-0.27-0.745-0.638-1.063
		c-0.429-0.37-1.099-0.719-0.987-1.338c0.124-0.688,0.236-1.307,0.351-1.414c0.115-0.107,0.361-0.125,0.464,0.112
		c0.104,0.236-0.083,0.41-0.111,1.164c-0.018,0.481,0.379,0.688,0.71,0.975c0.46,0.398,0.882,0.874,0.918,1.456
		C189.677,31.675,189.533,33.093,189.422,33.189z"/>
	<path style="fill:#8E7E6F;" d="M190.112,44.017c0.188-0.064,1.223,0.012,1.405-0.079c0.181-0.091,0.163-0.434,0-0.527
		c-0.164-0.092-1.549-0.146-1.883,0.017c-0.333,0.164-0.407,0.497-0.256,0.728c0.152,0.23,0.333,0.43,0.593,0.43
		C190.233,44.586,189.924,44.082,190.112,44.017z"/>
</g>
</svg>
